<mxfile host="app.diagrams.net" modified="2024-05-27T23:33:34.003Z" agent="Mozilla/5.0 (Windows NT 10.0; Win64; x64) AppleWebKit/537.36 (KHTML, like Gecko) Chrome/125.0.0.0 Safari/537.36" etag="yyYJ83UtXsrU2Izb4OCu" version="24.4.9" type="device">
  <diagram name="PÃ¡gina-1" id="kSTZUgpJUOyk-Pby0edk">
    <mxGraphModel dx="1754" dy="250" grid="0" gridSize="10" guides="1" tooltips="1" connect="1" arrows="1" fold="1" page="0" pageScale="1" pageWidth="827" pageHeight="1169" math="0" shadow="0">
      <root>
        <mxCell id="0" />
        <mxCell id="1" parent="0" />
        <mxCell id="gevPDgyFyUpCcguMLiVx-5" value="&lt;p style=&quot;margin:0px;margin-top:4px;text-align:center;&quot;&gt;&lt;i&gt;&amp;lt;&amp;lt;Interface&amp;gt;&amp;gt;&lt;/i&gt;&lt;/p&gt;&lt;p style=&quot;margin:0px;margin-top:4px;text-align:center;&quot;&gt;&lt;i&gt;&lt;b&gt;Order&lt;/b&gt;&lt;/i&gt;&lt;/p&gt;&lt;hr size=&quot;1&quot; style=&quot;border-style:solid;&quot;&gt;&lt;p style=&quot;margin:0px;margin-left:4px;&quot;&gt;+ execute(): void&lt;br&gt;&lt;br&gt;&lt;/p&gt;" style="verticalAlign=top;align=left;overflow=fill;html=1;whiteSpace=wrap;" vertex="1" parent="1">
          <mxGeometry x="68" y="535" width="190" height="72" as="geometry" />
        </mxCell>
        <mxCell id="gevPDgyFyUpCcguMLiVx-24" style="edgeStyle=none;curved=1;rounded=0;orthogonalLoop=1;jettySize=auto;html=1;entryX=0.25;entryY=0;entryDx=0;entryDy=0;fontSize=12;startSize=8;endSize=8;" edge="1" parent="1" source="gevPDgyFyUpCcguMLiVx-10" target="gevPDgyFyUpCcguMLiVx-20">
          <mxGeometry relative="1" as="geometry" />
        </mxCell>
        <mxCell id="gevPDgyFyUpCcguMLiVx-10" value="BuyStock" style="swimlane;fontStyle=1;align=center;verticalAlign=top;childLayout=stackLayout;horizontal=1;startSize=26;horizontalStack=0;resizeParent=1;resizeParentMax=0;resizeLast=0;collapsible=1;marginBottom=0;whiteSpace=wrap;html=1;" vertex="1" parent="1">
          <mxGeometry x="-22" y="660" width="173" height="105" as="geometry" />
        </mxCell>
        <mxCell id="gevPDgyFyUpCcguMLiVx-11" value="- abcStock: Stock" style="text;strokeColor=none;fillColor=none;align=left;verticalAlign=top;spacingLeft=4;spacingRight=4;overflow=hidden;rotatable=0;points=[[0,0.5],[1,0.5]];portConstraint=eastwest;whiteSpace=wrap;html=1;" vertex="1" parent="gevPDgyFyUpCcguMLiVx-10">
          <mxGeometry y="26" width="173" height="26" as="geometry" />
        </mxCell>
        <mxCell id="gevPDgyFyUpCcguMLiVx-12" value="" style="line;strokeWidth=1;fillColor=none;align=left;verticalAlign=middle;spacingTop=-1;spacingLeft=3;spacingRight=3;rotatable=0;labelPosition=right;points=[];portConstraint=eastwest;strokeColor=inherit;" vertex="1" parent="gevPDgyFyUpCcguMLiVx-10">
          <mxGeometry y="52" width="173" height="8" as="geometry" />
        </mxCell>
        <mxCell id="gevPDgyFyUpCcguMLiVx-13" value="+ BuyStock(abcStock: Stock)&lt;div&gt;+ execute(): void&lt;/div&gt;" style="text;strokeColor=none;fillColor=none;align=left;verticalAlign=top;spacingLeft=4;spacingRight=4;overflow=hidden;rotatable=0;points=[[0,0.5],[1,0.5]];portConstraint=eastwest;whiteSpace=wrap;html=1;" vertex="1" parent="gevPDgyFyUpCcguMLiVx-10">
          <mxGeometry y="60" width="173" height="45" as="geometry" />
        </mxCell>
        <mxCell id="gevPDgyFyUpCcguMLiVx-14" value="SellStock" style="swimlane;fontStyle=1;align=center;verticalAlign=top;childLayout=stackLayout;horizontal=1;startSize=26;horizontalStack=0;resizeParent=1;resizeParentMax=0;resizeLast=0;collapsible=1;marginBottom=0;whiteSpace=wrap;html=1;" vertex="1" parent="1">
          <mxGeometry x="179" y="660" width="171" height="105" as="geometry" />
        </mxCell>
        <mxCell id="gevPDgyFyUpCcguMLiVx-15" value="- abcStock: Stock" style="text;strokeColor=none;fillColor=none;align=left;verticalAlign=top;spacingLeft=4;spacingRight=4;overflow=hidden;rotatable=0;points=[[0,0.5],[1,0.5]];portConstraint=eastwest;whiteSpace=wrap;html=1;" vertex="1" parent="gevPDgyFyUpCcguMLiVx-14">
          <mxGeometry y="26" width="171" height="26" as="geometry" />
        </mxCell>
        <mxCell id="gevPDgyFyUpCcguMLiVx-16" value="" style="line;strokeWidth=1;fillColor=none;align=left;verticalAlign=middle;spacingTop=-1;spacingLeft=3;spacingRight=3;rotatable=0;labelPosition=right;points=[];portConstraint=eastwest;strokeColor=inherit;" vertex="1" parent="gevPDgyFyUpCcguMLiVx-14">
          <mxGeometry y="52" width="171" height="8" as="geometry" />
        </mxCell>
        <mxCell id="gevPDgyFyUpCcguMLiVx-17" value="+ SellStock(abcStock: Stock)&lt;div&gt;+ execute(): void&lt;/div&gt;" style="text;strokeColor=none;fillColor=none;align=left;verticalAlign=top;spacingLeft=4;spacingRight=4;overflow=hidden;rotatable=0;points=[[0,0.5],[1,0.5]];portConstraint=eastwest;whiteSpace=wrap;html=1;" vertex="1" parent="gevPDgyFyUpCcguMLiVx-14">
          <mxGeometry y="60" width="171" height="45" as="geometry" />
        </mxCell>
        <mxCell id="gevPDgyFyUpCcguMLiVx-18" style="edgeStyle=none;curved=1;rounded=0;orthogonalLoop=1;jettySize=auto;html=1;entryX=0.632;entryY=0.972;entryDx=0;entryDy=0;entryPerimeter=0;fontSize=12;startSize=8;endSize=8;" edge="1" parent="1" source="gevPDgyFyUpCcguMLiVx-14" target="gevPDgyFyUpCcguMLiVx-5">
          <mxGeometry relative="1" as="geometry" />
        </mxCell>
        <mxCell id="gevPDgyFyUpCcguMLiVx-19" style="edgeStyle=none;curved=1;rounded=0;orthogonalLoop=1;jettySize=auto;html=1;entryX=0.332;entryY=0.972;entryDx=0;entryDy=0;entryPerimeter=0;fontSize=12;startSize=8;endSize=8;" edge="1" parent="1" source="gevPDgyFyUpCcguMLiVx-10" target="gevPDgyFyUpCcguMLiVx-5">
          <mxGeometry relative="1" as="geometry" />
        </mxCell>
        <mxCell id="gevPDgyFyUpCcguMLiVx-20" value="Stock" style="swimlane;fontStyle=1;align=center;verticalAlign=top;childLayout=stackLayout;horizontal=1;startSize=26;horizontalStack=0;resizeParent=1;resizeParentMax=0;resizeLast=0;collapsible=1;marginBottom=0;whiteSpace=wrap;html=1;" vertex="1" parent="1">
          <mxGeometry x="72" y="839" width="160" height="113" as="geometry" />
        </mxCell>
        <mxCell id="gevPDgyFyUpCcguMLiVx-21" value="- name: string&lt;div&gt;- quantity: int&lt;/div&gt;" style="text;strokeColor=none;fillColor=none;align=left;verticalAlign=top;spacingLeft=4;spacingRight=4;overflow=hidden;rotatable=0;points=[[0,0.5],[1,0.5]];portConstraint=eastwest;whiteSpace=wrap;html=1;" vertex="1" parent="gevPDgyFyUpCcguMLiVx-20">
          <mxGeometry y="26" width="160" height="38" as="geometry" />
        </mxCell>
        <mxCell id="gevPDgyFyUpCcguMLiVx-22" value="" style="line;strokeWidth=1;fillColor=none;align=left;verticalAlign=middle;spacingTop=-1;spacingLeft=3;spacingRight=3;rotatable=0;labelPosition=right;points=[];portConstraint=eastwest;strokeColor=inherit;" vertex="1" parent="gevPDgyFyUpCcguMLiVx-20">
          <mxGeometry y="64" width="160" height="8" as="geometry" />
        </mxCell>
        <mxCell id="gevPDgyFyUpCcguMLiVx-23" value="+ buy(): void&lt;div&gt;+ sell(): void&lt;/div&gt;" style="text;strokeColor=none;fillColor=none;align=left;verticalAlign=top;spacingLeft=4;spacingRight=4;overflow=hidden;rotatable=0;points=[[0,0.5],[1,0.5]];portConstraint=eastwest;whiteSpace=wrap;html=1;" vertex="1" parent="gevPDgyFyUpCcguMLiVx-20">
          <mxGeometry y="72" width="160" height="41" as="geometry" />
        </mxCell>
        <mxCell id="gevPDgyFyUpCcguMLiVx-25" style="edgeStyle=none;curved=1;rounded=0;orthogonalLoop=1;jettySize=auto;html=1;entryX=0.681;entryY=0.009;entryDx=0;entryDy=0;entryPerimeter=0;fontSize=12;startSize=8;endSize=8;" edge="1" parent="1" source="gevPDgyFyUpCcguMLiVx-14" target="gevPDgyFyUpCcguMLiVx-20">
          <mxGeometry relative="1" as="geometry" />
        </mxCell>
        <mxCell id="gevPDgyFyUpCcguMLiVx-30" style="edgeStyle=none;curved=1;rounded=0;orthogonalLoop=1;jettySize=auto;html=1;entryX=1;entryY=0.25;entryDx=0;entryDy=0;fontSize=12;startSize=8;endSize=8;" edge="1" parent="1" source="gevPDgyFyUpCcguMLiVx-26" target="gevPDgyFyUpCcguMLiVx-5">
          <mxGeometry relative="1" as="geometry" />
        </mxCell>
        <mxCell id="gevPDgyFyUpCcguMLiVx-26" value="Broker" style="swimlane;fontStyle=1;align=center;verticalAlign=top;childLayout=stackLayout;horizontal=1;startSize=26;horizontalStack=0;resizeParent=1;resizeParentMax=0;resizeLast=0;collapsible=1;marginBottom=0;whiteSpace=wrap;html=1;" vertex="1" parent="1">
          <mxGeometry x="438" y="658" width="187" height="106" as="geometry" />
        </mxCell>
        <mxCell id="gevPDgyFyUpCcguMLiVx-27" value="- orderList: list" style="text;strokeColor=none;fillColor=none;align=left;verticalAlign=top;spacingLeft=4;spacingRight=4;overflow=hidden;rotatable=0;points=[[0,0.5],[1,0.5]];portConstraint=eastwest;whiteSpace=wrap;html=1;" vertex="1" parent="gevPDgyFyUpCcguMLiVx-26">
          <mxGeometry y="26" width="187" height="26" as="geometry" />
        </mxCell>
        <mxCell id="gevPDgyFyUpCcguMLiVx-28" value="" style="line;strokeWidth=1;fillColor=none;align=left;verticalAlign=middle;spacingTop=-1;spacingLeft=3;spacingRight=3;rotatable=0;labelPosition=right;points=[];portConstraint=eastwest;strokeColor=inherit;" vertex="1" parent="gevPDgyFyUpCcguMLiVx-26">
          <mxGeometry y="52" width="187" height="8" as="geometry" />
        </mxCell>
        <mxCell id="gevPDgyFyUpCcguMLiVx-29" value="+ takeOrder(order: Order): void&lt;div&gt;+ placeOrders(): void&lt;/div&gt;" style="text;strokeColor=none;fillColor=none;align=left;verticalAlign=top;spacingLeft=4;spacingRight=4;overflow=hidden;rotatable=0;points=[[0,0.5],[1,0.5]];portConstraint=eastwest;whiteSpace=wrap;html=1;" vertex="1" parent="gevPDgyFyUpCcguMLiVx-26">
          <mxGeometry y="60" width="187" height="46" as="geometry" />
        </mxCell>
      </root>
    </mxGraphModel>
  </diagram>
</mxfile>
